# xmcd
#
# Track frame offsets:
#	150
#	14427
#	30856
#	45511
#	58539
#	77054
#	98323
#	120401
#	132746
#	150595
#	164978
#	177979
#	190971
#	202719
#	214801
#	225089
#	233825
#	242362
#	251954
#	263516
#	274660
#	286344
#	297091
#	307002
#
# Disc length: 4238 seconds
#
# Revision: 1
# Processed by: cddbd v1.5.2PL0 Copyright (c) Steve Scherf et al.
# Submitted via: audiograbber 1.83.01
#
DISCID=3f108c18
DTITLE=LaVern Baker - Sings Bessie Smith (1958) and Blues Ballads (1959)
DYEAR=2018
DGENRE=Rock and Roll
TTITLE0=Gimme A Pigfoot
TTITLE1=Baby Doll
TTITLE2=On Revival Day
TTITLE3=Money Blues
TTITLE4=I Ain't Gonna Play No Second Fiddle
TTITLE5=Backwater Blues
TTITLE6=Empty Bed Blues
TTITLE7=There'll Be A Hot Time In The Old Town Tonight
TTITLE8=Nobody Knows You When You're Down And Out
TTITLE9=After You've Gone
TTITLE10=Young Woman's Blues
TTITLE11=Preaching The Blues
TTITLE12=I Cried A Tear
TTITLE13=If You Love Me
TTITLE14=You're Teasing Me
TTITLE15=Love Me Right
TTITLE16=Dix-A-Billy
TTITLE17=So High So Low
TTITLE18=I Waited Too Long
TTITLE19=Why Baby Why
TTITLE20=Humpty Dumpty Heart
TTITLE21=It's So Fine
TTITLE22=Whipper Snapper
TTITLE23=St. Louis Blues
EXTD=
EXTT0=
EXTT1=
EXTT2=
EXTT3=
EXTT4=
EXTT5=
EXTT6=
EXTT7=
EXTT8=
EXTT9=
EXTT10=
EXTT11=
EXTT12=
EXTT13=
EXTT14=
EXTT15=
EXTT16=
EXTT17=
EXTT18=
EXTT19=
EXTT20=
EXTT21=
EXTT22=
EXTT23=
PLAYORDER=
